<svg xmlns="http://www.w3.org/2000/svg" viewBox="0 0 48 48">
  <defs>
    <linearGradient id="grad48" x1="0%" y1="0%" x2="100%" y2="100%">
      <stop offset="0%" style="stop-color:#d85450;stop-opacity:1" />
      <stop offset="100%" style="stop-color:#8b3a3a;stop-opacity:1" />
    </linearGradient>
  </defs>
  <!-- Pressure cooker body -->
  <path d="M 8 14 L 10 8 L 38 8 L 40 14 L 40 36 Q 40 40 36 40 L 12 40 Q 8 40 8 36 Z" fill="url(#grad48)" stroke="#5a2a2a" stroke-width="1"/>
  <!-- Lid -->
  <ellipse cx="24" cy="14" rx="14" ry="6" fill="#e85a5f" stroke="#5a2a2a" stroke-width="1"/>
  <!-- Left handle -->
  <path d="M 10 16 Q 4 16 4 24 Q 4 32 10 32" fill="none" stroke="#8b3a3a" stroke-width="3" stroke-linecap="round"/>
  <!-- Right handle -->
  <path d="M 38 16 Q 44 16 44 24 Q 44 32 38 32" fill="none" stroke="#8b3a3a" stroke-width="3" stroke-linecap="round"/>
  <!-- Pressure release valve -->
  <circle cx="24" cy="10" r="4" fill="#ffc107" stroke="#5a2a2a" stroke-width="1"/>
  <circle cx="24" cy="10" r="2" fill="#ffed4e"/>
  <!-- Steam effect -->
  <circle cx="16" cy="5" r="1.5" fill="#999" opacity="0.6"/>
  <circle cx="24" cy="4" r="1.5" fill="#999" opacity="0.6"/>
  <circle cx="32" cy="5" r="1.5" fill="#999" opacity="0.6"/>
</svg>
